<?xml version="1.0" encoding="utf-8"?>
<svg viewBox="0 0 500 500" xmlns="http://www.w3.org/2000/svg">
  <path d="M 428.692 365.59 L 394.974 331.872 C 383.696 320.593 377.359 305.297 377.359 289.347 L 377.359 183.578 C 377.359 118.628 333.128 61.256 271.762 47.113 C 271.898 45.957 272.114 44.822 272.114 43.63 C 272.114 27.045 258.628 13.56 242.044 13.56 C 225.461 13.56 211.974 27.046 211.974 43.63 C 211.974 44.802 212.189 45.915 212.32 47.053 C 151.911 60.617 106.729 114.44 106.729 178.942 L 106.729 289.347 C 106.729 305.297 100.392 320.593 89.114 331.872 L 55.397 365.59 C 49.757 371.229 46.589 378.878 46.589 386.853 L 46.589 386.876 C 46.589 404.895 61.196 419.502 79.215 419.502 L 181.904 419.502 L 181.904 434.537 C 181.904 467.751 208.83 494.677 242.044 494.677 C 275.258 494.677 302.184 467.75 302.184 434.537 L 302.184 419.502 L 404.873 419.502 C 422.892 419.502 437.499 404.895 437.499 386.876 L 437.499 386.853 C 437.499 378.878 434.332 371.229 428.692 365.59 Z" style="fill: rgb(140, 55, 18);"/>
</svg>