<?xml version="1.0" encoding="utf-8"?>
<svg viewBox="-3.06 0 500 500" xmlns="http://www.w3.org/2000/svg">
  <g transform="matrix(1, 0, 0, 1, 64.761749, 201.848648)">
    <g transform="matrix(7.20974, 0, 0, 7.997145, -43.354164, -198.18692)" style=""/>
    <g transform="matrix(7.20974, 0, 0, 7.997145, -43.354164, -198.18692)" style=""/>
    <g transform="matrix(7.20974, 0, 0, 7.997145, -43.354164, -198.18692)" style=""/>
    <g transform="matrix(7.20974, 0, 0, 7.997145, -43.354164, -198.18692)" style=""/>
    <g transform="matrix(7.20974, 0, 0, 7.997145, -43.354164, -198.18692)" style=""/>
    <g transform="matrix(7.20974, 0, 0, 7.997145, -43.354164, -198.18692)" style=""/>
    <g transform="matrix(7.20974, 0, 0, 7.997145, -43.354164, -198.18692)" style=""/>
    <g transform="matrix(7.20974, 0, 0, 7.997145, -43.354164, -198.18692)" style=""/>
    <g transform="matrix(7.20974, 0, 0, 7.997145, -43.354164, -198.18692)" style=""/>
    <g transform="matrix(7.20974, 0, 0, 7.997145, -43.354164, -198.18692)" style=""/>
    <g transform="matrix(7.20974, 0, 0, 7.997145, -43.354164, -198.18692)" style=""/>
    <g transform="matrix(7.20974, 0, 0, 7.997145, -43.354164, -198.18692)" style=""/>
    <g transform="matrix(7.20974, 0, 0, 7.997145, -43.354164, -198.18692)" style=""/>
    <g transform="matrix(7.20974, 0, 0, 7.997145, -43.354164, -198.18692)" style=""/>
    <g transform="matrix(7.20974, 0, 0, 7.997145, -43.354164, -198.18692)" style=""/>
    <path d="M 208.888 -192.716 L 270.736 -69.474 L 325.257 -69.474 L 261.743 -192.685 L 208.889 -192.716 L 208.888 -192.716 Z M 63.312 -191.978 L -3.246 -60.98 L 65.667 295.042 L 185.7 295.139 L 253.236 -60.882 L 187.466 -191.913 L 63.312 -191.978 Z M 80.123 -113.431 L 173.041 -113.431 L 173.041 -94.188 L 80.123 -94.188 L 80.123 -113.428 L 80.123 -113.431 Z M 80.123 -76.135 L 173.041 -76.135 L 173.041 -56.893 L 80.123 -56.893 L 80.123 -76.136 L 80.123 -76.135 Z M 271.129 -50.232 L 205.65 294.819 L 255.102 294.85 L 326.599 -50.231 L 271.129 -50.231 L 271.129 -50.232 Z" style="fill: rgb(140, 55, 18);"/>
  </g>
  <g transform="matrix(1, 0, 0, 1, 64.761749, 201.848648)"/>
  <g transform="matrix(1, 0, 0, 1, 64.761749, 201.848648)"/>
  <g transform="matrix(1, 0, 0, 1, 64.761749, 201.848648)"/>
  <g transform="matrix(1, 0, 0, 1, 64.761749, 201.848648)"/>
  <g transform="matrix(1, 0, 0, 1, 64.761749, 201.848648)"/>
  <g transform="matrix(1, 0, 0, 1, 64.761749, 201.848648)"/>
  <g transform="matrix(1, 0, 0, 1, 64.761749, 201.848648)"/>
  <g transform="matrix(1, 0, 0, 1, 64.761749, 201.848648)"/>
  <g transform="matrix(1, 0, 0, 1, 64.761749, 201.848648)"/>
  <g transform="matrix(1, 0, 0, 1, 64.761749, 201.848648)"/>
  <g transform="matrix(1, 0, 0, 1, 64.761749, 201.848648)"/>
  <g transform="matrix(1, 0, 0, 1, 64.761749, 201.848648)"/>
  <g transform="matrix(1, 0, 0, 1, 64.761749, 201.848648)"/>
  <g transform="matrix(1, 0, 0, 1, 64.761749, 201.848648)"/>
  <g transform="matrix(1, 0, 0, 1, 64.761749, 201.848648)"/>
</svg>